# xmcd CD database file
#
# Track frame offsets:
#       150
#       19622
#       41577
#       64891
#       101261
#       121313
#       140352
#       156606
#       173484
#       215916
#       234620
#       264990
#       284441
#       326955
#
# Disc length: 4761 seconds
#
# Revision: 0
# Processed by: cddbd v1.5.2PL0 Copyright (c) Steve Scherf et al.
# Submitted via: jack 3.1.1
#
DISCID=cf12970e
DTITLE=Blue Rodeo - Live at Massey Hall
DYEAR=2015
DGENRE=Country Rock
TTITLE0=Head Over Heels
TTITLE1=Rose Coloured Glasses
TTITLE2=Bad Timing
TTITLE3=Disappear
TTITLE4=New Morning Sun
TTITLE5=Tara's Blues
TTITLE6=Tell Me Again
TTITLE7=When The Truth Comes Out
TTITLE8=Diamond Mine
TTITLE9=Girl of Mine
TTITLE10=After The Rain
TTITLE11=Paradise
TTITLE12=5 Days in May
TTITLE13=Lost Together
EXTD=
EXTT0=
EXTT1=
EXTT2=
EXTT3=
EXTT4=
EXTT5=
EXTT6=
EXTT7=
EXTT8=
EXTT9=
EXTT10=
EXTT11=
EXTT12=
EXTT13=
PLAYORDER=
